<svg width="286" height="184" viewBox="0 0 286 184" fill="none" xmlns="http://www.w3.org/2000/svg">
<path d="M16.3657 127.082H0V183.5H286V86.963H285.479C275.549 86.963 266.262 82.0489 260.676 73.8385L250.878 59.4386C245.784 51.9517 237.316 47.4706 228.26 47.4706C216.503 47.4706 206.061 54.983 202.323 66.1303L182.651 124.799C178.552 137.023 167.101 145.261 154.207 145.261H152.008C140.629 145.261 130.229 138.823 125.155 128.638L108.718 95.6429C103.772 85.7155 93.6361 79.4406 82.545 79.4406C73.5603 79.4406 65.0744 83.5711 59.5316 90.6424L39.9766 115.59C34.2899 122.845 25.5837 127.082 16.3657 127.082Z" fill="url(#paint0_linear)"/>
<path d="M0 127.082H16.3657C25.5837 127.082 34.2899 122.845 39.9766 115.59L59.5316 90.6424C65.0744 83.5711 73.5603 79.4406 82.545 79.4406V79.4406C93.6361 79.4406 103.772 85.7155 108.718 95.6429L125.155 128.638C130.229 138.823 140.629 145.261 152.008 145.261H154.207C167.101 145.261 178.552 137.023 182.651 124.799L202.323 66.1303C206.061 54.983 216.503 47.4706 228.26 47.4706V47.4706C237.316 47.4706 245.784 51.9517 250.878 59.4386L260.676 73.8385C266.262 82.0489 275.549 86.963 285.479 86.963H286" stroke="#4F4282"/>
<ellipse cx="227" cy="47.4706" rx="3" ry="3.76118" fill="#695BBD"/>
<path fill-rule="evenodd" clip-rule="evenodd" d="M217.539 0C211.166 0 206 5.16637 206 11.5394C206 17.9124 211.166 23.0788 217.539 23.0788L221.772 23.0788C222.38 23.0788 222.956 23.3559 223.335 23.8317L225.355 26.3637C226.156 27.3676 227.681 27.3676 228.482 26.3637L230.502 23.8317C230.881 23.3559 231.457 23.0788 232.065 23.0788L235.461 23.0788C241.834 23.0788 247 17.9124 247 11.5394C247 5.16637 241.834 0 235.461 0H217.539Z" fill="#1C2542"/>
<path d="M222.392 13.2576V14.0976H218.568V13.3376L220.504 11.2496C220.733 10.9989 220.901 10.7696 221.008 10.5616C221.115 10.3536 221.168 10.1483 221.168 9.94559C221.168 9.68426 221.091 9.48693 220.936 9.35359C220.787 9.22026 220.571 9.15359 220.288 9.15359C219.787 9.15359 219.272 9.35093 218.744 9.74559L218.4 8.9936C218.624 8.79093 218.912 8.63093 219.264 8.5136C219.616 8.39093 219.971 8.3296 220.328 8.3296C220.899 8.3296 221.349 8.47093 221.68 8.75359C222.016 9.03093 222.184 9.40693 222.184 9.8816C222.184 10.2069 222.112 10.5136 221.968 10.8016C221.829 11.0896 221.595 11.4123 221.264 11.7696L219.864 13.2576H222.392ZM225.509 10.4576C225.866 10.4576 226.181 10.5349 226.453 10.6896C226.725 10.8389 226.935 11.0523 227.085 11.3296C227.234 11.6016 227.309 11.9163 227.309 12.2736C227.309 12.6469 227.223 12.9776 227.053 13.2656C226.882 13.5483 226.637 13.7696 226.317 13.9296C225.997 14.0843 225.626 14.1616 225.205 14.1616C224.847 14.1616 224.495 14.1029 224.149 13.9856C223.802 13.8629 223.517 13.7003 223.293 13.4976L223.637 12.7456C224.154 13.1403 224.682 13.3376 225.221 13.3376C225.578 13.3376 225.85 13.2496 226.037 13.0736C226.229 12.8923 226.325 12.6363 226.325 12.3056C226.325 11.9909 226.226 11.7403 226.029 11.5536C225.837 11.3616 225.578 11.2656 225.253 11.2656C225.029 11.2656 224.818 11.3083 224.621 11.3936C224.423 11.4736 224.25 11.5936 224.101 11.7536H223.477V8.4016H227.045V9.20159H224.485V10.7536C224.773 10.5563 225.114 10.4576 225.509 10.4576ZM229.386 11.8016C228.938 11.8016 228.586 11.6549 228.33 11.3616C228.079 11.0629 227.954 10.6283 227.954 10.0576C227.954 9.49226 228.079 9.06293 228.33 8.7696C228.586 8.47093 228.938 8.32159 229.386 8.32159C229.839 8.32159 230.194 8.47093 230.45 8.7696C230.706 9.06293 230.834 9.49226 230.834 10.0576C230.834 10.6283 230.706 11.0629 230.45 11.3616C230.194 11.6549 229.839 11.8016 229.386 11.8016ZM229.33 14.0976L232.626 8.4016H233.514L230.21 14.0976H229.33ZM229.386 11.1536C229.594 11.1536 229.746 11.0683 229.842 10.8976C229.938 10.7269 229.986 10.4469 229.986 10.0576C229.986 9.67893 229.935 9.40426 229.834 9.23359C229.738 9.05759 229.588 8.96959 229.386 8.96959C229.188 8.96959 229.042 9.05759 228.946 9.23359C228.85 9.40426 228.802 9.67893 228.802 10.0576C228.802 10.4416 228.85 10.7216 228.946 10.8976C229.042 11.0683 229.188 11.1536 229.386 11.1536ZM233.45 14.1536C232.996 14.1536 232.642 14.0069 232.386 13.7136C232.135 13.4149 232.01 12.9776 232.01 12.4016C232.01 11.8363 232.135 11.4069 232.386 11.1136C232.642 10.8203 232.996 10.6736 233.45 10.6736C233.903 10.6736 234.255 10.8203 234.506 11.1136C234.762 11.4069 234.89 11.8389 234.89 12.4096C234.89 12.9803 234.762 13.4149 234.506 13.7136C234.255 14.0069 233.903 14.1536 233.45 14.1536ZM233.45 13.5056C233.652 13.5056 233.802 13.4203 233.898 13.2496C233.994 13.0736 234.042 12.7936 234.042 12.4096C234.042 12.0309 233.991 11.7563 233.89 11.5856C233.794 11.4096 233.647 11.3216 233.45 11.3216C233.247 11.3216 233.098 11.4096 233.002 11.5856C232.906 11.7563 232.858 12.0309 232.858 12.4096C232.858 12.7936 232.906 13.0736 233.002 13.2496C233.098 13.4203 233.247 13.5056 233.45 13.5056Z" fill="white"/>
<defs>
<linearGradient id="paint0_linear" x1="143" y1="47.4706" x2="143" y2="183.5" gradientUnits="userSpaceOnUse">
<stop stop-color="#DCDBFA"/>
<stop offset="1" stop-color="#DCDBFA" stop-opacity="0"/>
</linearGradient>
</defs>
</svg>
