<svg width="29" height="33" viewBox="0 0 29 33" fill="none" xmlns="http://www.w3.org/2000/svg">
<g filter="url(#filter0_d)">
<path d="M19 4.5H22.5C23.0523 4.5 23.5 4.94772 23.5 5.5V23C23.5 23.5523 23.0523 24 22.5 24H6C5.44772 24 5 23.5523 5 23V5.5C5 4.94772 5.44772 4.5 6 4.5H9M19 4.5V3C19 1.89543 18.1046 1 17 1H11C9.89543 1 9 1.89543 9 3V4.5M19 4.5V4.5C19 5.60457 18.1046 6.5 17 6.5H11C9.89543 6.5 9 5.60457 9 4.5V4.5M9.5 12H19M19 17H9.5" stroke="#828282" stroke-width="2" stroke-linecap="round"/>
</g>
<defs>
<filter id="filter0_d" x="0" y="0" width="28.5" height="33" filterUnits="userSpaceOnUse" color-interpolation-filters="sRGB">
<feFlood flood-opacity="0" result="BackgroundImageFix"/>
<feColorMatrix in="SourceAlpha" type="matrix" values="0 0 0 0 0 0 0 0 0 0 0 0 0 0 0 0 0 0 127 0"/>
<feOffset dy="4"/>
<feGaussianBlur stdDeviation="2"/>
<feColorMatrix type="matrix" values="0 0 0 0 0 0 0 0 0 0 0 0 0 0 0 0 0 0 0.25 0"/>
<feBlend mode="normal" in2="BackgroundImageFix" result="effect1_dropShadow"/>
<feBlend mode="normal" in="SourceGraphic" in2="effect1_dropShadow" result="shape"/>
</filter>
</defs>
</svg>
