<svg width="34" height="22" viewBox="0 0 34 22" fill="none" xmlns="http://www.w3.org/2000/svg">
<path d="M21.8889 2.24683H12.9875V18.7887H21.8889V2.24683Z" fill="#FF5F00"/>
<path d="M13.5527 10.5214C13.5514 8.92861 13.9006 7.35636 14.5738 5.92367C15.247 4.49099 16.2265 3.23541 17.4382 2.25196C15.9374 1.03235 14.1351 0.273947 12.2372 0.0634288C10.3393 -0.147089 8.42245 0.198773 6.70567 1.06149C4.98888 1.9242 3.54144 3.26896 2.52879 4.94207C1.51614 6.61517 0.979126 8.54913 0.979126 10.5229C0.979126 12.4967 1.51614 14.4306 2.52879 16.1038C3.54144 17.7769 4.98888 19.1216 6.70567 19.9843C8.42245 20.847 10.3393 21.1929 12.2372 20.9824C14.1351 20.7719 15.9374 20.0135 17.4382 18.7939C16.2261 17.8101 15.2464 16.5541 14.5732 15.1208C13.9 13.6876 13.551 12.1148 13.5527 10.5214Z" fill="#EB001B"/>
<path d="M33.8988 10.5222C33.8988 12.4961 33.3616 14.4302 32.3488 16.1033C31.336 17.7765 29.8883 19.1212 28.1713 19.9838C26.4543 20.8464 24.5372 21.1921 22.6392 20.9812C20.7412 20.7704 18.9389 20.0116 17.4382 18.7917C18.6495 17.8073 19.6287 16.5514 20.3021 15.1186C20.9754 13.6859 21.3253 12.1137 21.3253 10.5207C21.3253 8.92772 20.9754 7.35553 20.3021 5.92277C19.6287 4.49 18.6495 3.23408 17.4382 2.24976C18.9391 1.02962 20.7417 0.270807 22.6399 0.0600969C24.5382 -0.150614 26.4555 0.195277 28.1726 1.05822C29.8897 1.92117 31.3373 3.26634 32.3499 4.93993C33.3625 6.61353 33.8993 8.548 33.8988 10.5222Z" fill="#F79E1B"/>
<path d="M32.9211 17.0356V16.6966H33.0539V16.6294H32.7233V16.6995H32.8561V17.0385L32.9211 17.0356ZM33.5738 17.0356V16.6265H33.4862L33.3676 16.9187L33.2489 16.6265H33.1443V17.0356H33.2037V16.7287L33.3139 16.9946H33.3902L33.5004 16.7287V17.0385L33.5738 17.0356Z" fill="#F79E1B"/>
</svg>
