<svg width="44" height="22" viewBox="0 0 44 22" fill="none" xmlns="http://www.w3.org/2000/svg">
<path d="M27.9328 2.24683H16.117V18.7887H27.9328V2.24683Z" fill="#FF5F00"/>
<path d="M16.8672 10.5214C16.8656 8.92861 17.3291 7.35635 18.2227 5.92367C19.1163 4.49098 20.4165 3.23541 22.0249 2.25196C20.0328 1.03235 17.6403 0.273947 15.1211 0.0634287C12.6018 -0.147089 10.0573 0.198773 7.77839 1.06149C5.4995 1.9242 3.57815 3.26895 2.23394 4.94206C0.889735 6.61517 0.176895 8.54913 0.176895 10.5229C0.176895 12.4967 0.889735 14.4306 2.23394 16.1037C3.57815 17.7768 5.4995 19.1216 7.77839 19.9843C10.0573 20.847 12.6018 21.1929 15.1211 20.9824C17.6403 20.7719 20.0328 20.0135 22.0249 18.7938C20.416 17.8101 19.1154 16.5541 18.2219 15.1208C17.3283 13.6876 16.865 12.1148 16.8672 10.5214Z" fill="#EB001B"/>
<path d="M43.8749 10.5222C43.8749 12.4961 43.1619 14.4302 41.8174 16.1033C40.473 17.7765 38.5513 19.1212 36.2722 19.9838C33.993 20.8464 31.4482 21.1921 28.9288 20.9812C26.4094 20.7704 24.0169 20.0116 22.0249 18.7917C23.6327 17.8073 24.9326 16.5514 25.8264 15.1186C26.7202 13.6859 27.1846 12.1137 27.1846 10.5207C27.1846 8.92772 26.7202 7.35553 25.8264 5.92277C24.9326 4.49 23.6327 3.23408 22.0249 2.24976C24.0172 1.02962 26.41 0.270807 28.9297 0.0600969C31.4495 -0.150614 33.9945 0.195277 36.2739 1.05822C38.5532 1.92117 40.4748 3.26634 41.8189 4.93993C43.1631 6.61353 43.8756 8.548 43.8749 10.5222Z" fill="#F79E1B"/>
<path d="M42.5771 17.0356V16.6966H42.7534V16.6294H42.3145V16.6995H42.4908V17.0385L42.5771 17.0356ZM43.4436 17.0356V16.6265H43.3273L43.1697 16.9187L43.0122 16.6265H42.8734V17.0356H42.9522V16.7287L43.0985 16.9947H43.1998L43.346 16.7287V17.0385L43.4436 17.0356Z" fill="#F79E1B"/>
</svg>
