<svg width="78" height="11" viewBox="0 0 78 11" fill="none" xmlns="http://www.w3.org/2000/svg">
<path d="M11.3993 10.0609V5.67777C11.3993 4.02388 10.3791 2.91056 8.73732 2.89595C8.26973 2.86469 7.80259 2.96369 7.3846 3.18264C6.9666 3.40158 6.61304 3.73245 6.36078 4.14076C6.13092 3.74457 5.80196 3.41983 5.40857 3.20075C5.01519 2.98167 4.57194 2.87638 4.12553 2.89595C3.73681 2.87654 3.34991 2.96228 3.00302 3.14471C2.65612 3.32713 2.36123 3.59995 2.14744 3.93621V3.05959H0.675171V10.0609H2.16157V6.18329C2.16157 4.96771 2.81151 4.32485 3.81752 4.32485C4.82352 4.32485 5.28979 4.98232 5.28979 6.16868V10.0609H6.7677V6.18329C6.7677 4.96771 7.44591 4.32485 8.42365 4.32485C9.4014 4.32485 9.91005 4.98232 9.91005 6.16868V10.0609H11.3993ZM33.3929 3.06543H30.9881V0.944005H29.5017V3.06543H28.1283V4.45634H29.5017V7.64433C29.5017 9.26901 30.1092 10.2362 31.85 10.2362C32.5001 10.2384 33.1377 10.051 33.6896 9.69563L33.2657 8.39239C32.8707 8.63567 32.4225 8.7714 31.963 8.78687C31.2283 8.78687 30.9852 8.31933 30.9852 7.61803V4.45634H33.39L33.3929 3.06543ZM45.9481 2.89011C45.5891 2.87929 45.234 2.96887 44.9202 3.14939C44.6063 3.32991 44.3454 3.59468 44.165 3.91576V3.06543H42.7069V10.0609H44.1791V6.13946C44.1791 4.97063 44.6595 4.33946 45.6231 4.33946C45.9384 4.33475 46.2514 4.39432 46.5444 4.51479L46.9965 3.08005C46.66 2.9556 46.3055 2.89137 45.9481 2.89011ZM26.9669 3.62063C26.1333 3.10855 25.175 2.85497 24.206 2.89011C22.4936 2.89011 21.3802 3.74043 21.3802 5.12842C21.3802 6.27096 22.1997 6.97225 23.7143 7.19141L24.4067 7.29368C25.212 7.41057 25.5963 7.62972 25.5963 8.0242C25.5963 8.56479 25.0594 8.87453 24.0534 8.87453C23.2418 8.90119 22.4453 8.64379 21.7928 8.14401L21.123 9.32745C21.9804 9.94732 23.0077 10.2659 24.0534 10.2362C26.0061 10.2362 27.1393 9.28362 27.1393 7.95407C27.1393 6.72388 26.2463 6.08102 24.7769 5.86186L24.0845 5.75959C23.4487 5.67193 22.9372 5.54044 22.9372 5.0729C22.9372 4.56154 23.4176 4.25472 24.2258 4.25472C24.9663 4.26604 25.6918 4.47219 26.3339 4.85375L26.9669 3.62063ZM66.3932 2.89011C66.0342 2.87929 65.679 2.96887 65.3652 3.14939C65.0514 3.32991 64.7905 3.59468 64.61 3.91576V3.06543H63.1519V10.0609H64.6242V6.13946C64.6242 4.97063 65.1046 4.33946 66.0682 4.33946C66.3834 4.33475 66.6964 4.39432 66.9894 4.51479L67.4415 3.08005C67.105 2.9556 66.7505 2.89137 66.3932 2.89011ZM47.4345 6.56316C47.4345 8.68459 48.8644 10.2362 51.0431 10.2362C51.9266 10.2814 52.7945 9.98332 53.4762 9.4005L52.7697 8.17031C52.2608 8.57108 51.6404 8.79141 51.0007 8.79855C49.8252 8.79855 48.9633 7.9044 48.9633 6.56024C48.9633 5.21608 49.828 4.33654 51.0007 4.32193C51.6404 4.32908 52.2608 4.5494 52.7697 4.95018L53.4762 3.71998C52.7945 3.13717 51.9266 2.83907 51.0431 2.88427C48.8644 2.88427 47.4345 4.43589 47.4345 6.55732V6.56316ZM61.219 6.56316V3.05667H59.7468V3.90699C59.4957 3.57205 59.1708 3.30415 58.7991 3.12571C58.4274 2.94727 58.0198 2.86348 57.6104 2.88134C55.7143 2.88134 54.2194 4.41836 54.2194 6.5544C54.2194 8.69044 55.7058 10.2275 57.6104 10.2275C58.0198 10.2453 58.4274 10.1615 58.7991 9.98308C59.1708 9.80464 59.4957 9.53674 59.7468 9.2018V10.0492H61.219V6.56316ZM55.7425 6.56316C55.7425 5.33297 56.5196 4.32485 57.7941 4.32485C59.012 4.32485 59.8315 5.29206 59.8315 6.56316C59.8315 7.83427 59.012 8.80148 57.7941 8.80148C56.5196 8.80148 55.7425 7.79044 55.7425 6.56316ZM37.9792 2.89011C36.0011 2.89011 34.6108 4.38329 34.6108 6.56316C34.6108 8.78687 36.0548 10.2362 38.0781 10.2362C39.0884 10.2728 40.0763 9.92329 40.8531 9.2544L40.1325 8.12648C39.5705 8.59147 38.8742 8.84863 38.1544 8.857C37.2049 8.857 36.3431 8.40407 36.1311 7.14466H41.1555C41.1696 6.95472 41.1837 6.76479 41.1837 6.56024C41.1837 4.38037 39.8669 2.88719 37.9707 2.88719L37.9792 2.89011ZM37.951 4.2518C38.9005 4.2518 39.508 4.86544 39.6634 5.94953H36.1566C36.312 4.93849 36.9054 4.2518 37.9538 4.2518H37.951ZM74.8707 6.56316V0.254395H73.3984V3.91284C73.1474 3.5779 72.8225 3.31 72.4508 3.13156C72.0791 2.95311 71.6715 2.86932 71.2621 2.88719C69.366 2.88719 67.8711 4.4242 67.8711 6.56024C67.8711 8.69628 69.3575 10.2333 71.2621 10.2333C71.6715 10.2512 72.0791 10.1674 72.4508 9.98893C72.8225 9.81048 73.1474 9.54258 73.3984 9.20765V10.055H74.8707V6.56316ZM76.5916 9.41511C76.6499 9.41488 76.7075 9.4268 76.7612 9.45018C76.8128 9.47297 76.8598 9.50569 76.8997 9.54661C76.9391 9.58675 76.9708 9.63437 76.9929 9.68687C77.0156 9.74131 77.0273 9.79998 77.0273 9.85927C77.0273 9.91856 77.0156 9.97723 76.9929 10.0317C76.9707 10.0841 76.9391 10.1317 76.8997 10.1719C76.8597 10.2127 76.8127 10.2454 76.7612 10.2684C76.7076 10.292 76.6499 10.3039 76.5916 10.3034C76.5055 10.3045 76.4209 10.2793 76.3485 10.231C76.2762 10.1827 76.2192 10.1133 76.1847 10.0317C76.1622 9.97718 76.1506 9.91853 76.1506 9.85927C76.1506 9.8 76.1622 9.74135 76.1847 9.68687C76.2289 9.57957 76.3121 9.49456 76.4164 9.45018C76.4737 9.42555 76.5353 9.4136 76.5973 9.41511H76.5916ZM76.5916 10.2041C76.6363 10.2048 76.6806 10.1958 76.7216 10.1778C76.7606 10.1603 76.796 10.1356 76.8262 10.1047C76.889 10.0395 76.9243 9.95128 76.9243 9.85927C76.9243 9.76725 76.889 9.67899 76.8262 9.61381C76.7962 9.5828 76.7607 9.55801 76.7216 9.54076C76.6805 9.52286 76.6363 9.51391 76.5916 9.51446C76.5461 9.51384 76.5009 9.52279 76.4588 9.54076C76.4084 9.56301 76.3641 9.59766 76.3296 9.64169C76.2951 9.68571 76.2715 9.73779 76.2609 9.79338C76.2504 9.84898 76.2531 9.9064 76.2688 9.96066C76.2846 10.0149 76.313 10.0644 76.3514 10.1047C76.3824 10.136 76.4188 10.1608 76.4588 10.1778C76.5026 10.1966 76.5499 10.2056 76.5973 10.2041H76.5916ZM76.6171 9.64888C76.6594 9.64581 76.7014 9.65822 76.7358 9.68394C76.7497 9.69543 76.7608 9.71015 76.7681 9.72691C76.7755 9.74366 76.7789 9.76198 76.7782 9.78037C76.7787 9.79618 76.7759 9.81192 76.7701 9.82653C76.7642 9.84115 76.7554 9.8543 76.7442 9.86511C76.7183 9.88895 76.6856 9.90332 76.651 9.90602L76.781 10.0609H76.6792L76.5577 9.90602H76.5182V10.0609H76.4334V9.6518L76.6171 9.64888ZM76.5182 9.72485V9.83589H76.6171C76.6346 9.84117 76.6532 9.84117 76.6708 9.83589C76.6772 9.83139 76.6824 9.82527 76.6858 9.81811C76.6893 9.81095 76.6909 9.80298 76.6906 9.79498C76.6909 9.78698 76.6893 9.77902 76.6858 9.77186C76.6824 9.76469 76.6772 9.75857 76.6708 9.75407C76.6532 9.7488 76.6346 9.7488 76.6171 9.75407L76.5182 9.72485ZM69.3999 6.56316C69.3999 5.33297 70.177 4.32485 71.4514 4.32485C72.6694 4.32485 73.4889 5.29206 73.4889 6.56316C73.4889 7.83427 72.6694 8.80148 71.4514 8.80148C70.177 8.80148 69.3999 7.79044 69.3999 6.56316ZM19.6931 6.56316V3.05667H18.2209V3.90699C17.9698 3.5749 17.6458 3.30944 17.2758 3.1326C16.9058 2.95576 16.5003 2.87264 16.093 2.89011C14.1969 2.89011 12.702 4.42712 12.702 6.56316C12.702 8.6992 14.1884 10.2362 16.093 10.2362C16.5024 10.2541 16.91 10.1703 17.2817 9.99185C17.6534 9.81341 17.9783 9.54551 18.2294 9.21057V10.058H19.7016L19.6931 6.56316ZM14.2166 6.56316C14.2166 5.33297 14.9938 4.32485 16.2682 4.32485C17.4862 4.32485 18.3057 5.29206 18.3057 6.56316C18.3057 7.83427 17.4862 8.80148 16.2682 8.80148C14.9938 8.80148 14.2166 7.79336 14.2166 6.56316Z" fill="white"/>
</svg>
