<svg width="25" height="20" viewBox="0 0 25 20" fill="none" xmlns="http://www.w3.org/2000/svg">
<g opacity="0.3">
<path d="M7.53926 4.59998H0.890015V9.11108H7.53926V4.59998Z" fill="white"/>
<path d="M7.53926 11.1333H0.890015V15.6444H7.53926V11.1333Z" fill="white"/>
<path d="M24.0997 4.59998H17.785V9.11108H24.0997V4.59998Z" fill="white"/>
<path d="M24.0997 11.1333H17.785V15.6444H24.0997V11.1333Z" fill="white"/>
<path d="M9.09894 6.33739V13.8929H16.2082V6.33739L9.09894 6.33739Z" fill="white"/>
<path d="M11.073 4.08889H8.98202V2.22222H0.890015V0H11.073V4.08889Z" fill="white"/>
<path d="M16.0076 4.08889H13.9167V0H24.0997V2.22222H16.0076V4.08889Z" fill="white"/>
<path d="M24.0997 20H13.9167V15.9333H16.0076V17.7778H24.0997V20Z" fill="white"/>
<path d="M11.073 20H0.890015V17.7778H8.98202V15.9333H11.073V20Z" fill="white"/>
</g>
</svg>
