<svg width="354" height="223" viewBox="0 0 354 223" fill="none" xmlns="http://www.w3.org/2000/svg">
<mask id="mask0" mask-type="alpha" maskUnits="userSpaceOnUse" x="0" y="0" width="354" height="223">
<rect width="354" height="223" rx="8" fill="#47494E"/>
</mask>
<g mask="url(#mask0)">
<path opacity="0.05" fill-rule="evenodd" clip-rule="evenodd" d="M345.873 158.842C327.924 150.158 304.185 135.684 304.764 109.632C305.343 74.3158 337.767 50 384.087 50C402.615 50 417.09 54.0526 428.091 58.1052L419.985 96.3158C398.562 86.4737 380.613 87.0526 373.665 88.2105C360.348 89.9474 353.979 96.8947 353.979 103.263C353.745 111.907 364.354 117.534 377.093 124.292C395.922 134.279 419.406 146.736 419.406 175.053C418.827 212.684 386.982 237 337.767 237C316.923 236.421 296.658 232.368 285.657 227.158L294.342 187.789C294.873 188.041 295.409 188.296 295.952 188.555C306.653 193.653 319.806 199.919 342.399 199.368C355.716 198.789 370.191 193.579 370.191 181.421C370.191 173.316 363.822 167.526 345.873 158.842ZM487.149 66.2105C490.044 58.1052 498.15 52.8947 506.835 52.8947H547.365L585 233.526H541.575L535.785 206.316H475.569L465.726 233.526H416.511L487.149 66.2105ZM527.679 169.842L513.783 102.105L488.886 169.842H527.679ZM206.913 233.526L245.706 52.8947H292.605L253.812 233.526H206.913ZM127.59 175.632L176.226 52.8947H225.441L149.592 233.526H100.377L63.321 89.3684C63.1465 88.7143 62.9753 88.0897 62.805 87.4925C89.1697 98.4832 112.309 116.723 122.155 146.862L124.564 159.613L127 173.5C126.972 173.004 126.941 172.511 126.908 172.019L127.59 175.632ZM120.568 138.462C110.447 101.366 72.5059 79.8877 39.7475 68.0033C29.4151 63.9844 17.1589 60.4962 6 58.1052L7.15789 52.8947H86.481C96.324 52.8947 105.588 59.8421 107.904 71.421L120.568 138.462Z" fill="white"/>
</g>
</svg>
